<?xml version="1.0" encoding="utf-8"?>
<!-- Generator: Adobe Illustrator 26.3.1, SVG Export Plug-In . SVG Version: 6.00 Build 0)  -->
<svg version="1.1" id="Layer_1" xmlns="http://www.w3.org/2000/svg" xmlns:xlink="http://www.w3.org/1999/xlink" x="0px" y="0px"
	 viewBox="0 0 792.92 293" style="enable-background:new 0 0 792.92 293;" xml:space="preserve">
<style type="text/css">
	.st0{fill:#EA882F;}
	.st1{fill:#8B4426;}
</style>
<g>
	<path class="st0" d="M197.54,49.78c-1.3,3.75-2.57,7.17-3.67,10.64c-2.21,6.99-4.34,14-6.48,21.01c-0.88,2.89-5.18,4.59-7.61,2.8
		c-0.59-0.44-0.83-1.63-0.86-2.5c-0.13-3.23,0.04-6.48-0.17-9.7c-0.45-6.64-3.39-10.12-9.99-11.14c-4.23-0.66-8.58-0.62-12.89-0.73
		c-4.31-0.11-8.63-0.03-12.95-0.02c-5.66,0-6.92,0.86-8.63,6.25c-3.89,12.22-7.77,24.46-11.59,36.7c-2.55,8.18-2.5,8.19,6.09,8.19
		c4.64,0,9.28-0.05,13.92,0c6.13,0.06,10.86-2.34,13.93-7.75c1.43-2.53,2.81-5.09,4.24-7.62c1.42-2.5,5.14-3.73,7.55-2.29
		c0.61,0.36,1.1,1.81,0.88,2.53c-4.33,14.11-8.73,28.2-13.24,42.26c-1,3.13-3.87,2.55-6.28,2.41c-2.73-0.15-2.06-2.23-1.94-3.88
		c0.15-2.26,0.53-4.5,0.56-6.76c0.05-4.82-1.83-6.98-6.74-7.18c-6.79-0.27-13.59-0.09-20.38-0.29c-3.59-0.1-5.28,1.78-6.23,4.88
		c-2.27,7.42-4.63,14.81-6.85,22.24c-1.67,5.57-3.43,11.13-4.73,16.8c-1.8,7.87,0.45,11.66,8.34,12.31
		c8.45,0.69,17.03,0.57,25.51,0.01c8.16-0.54,14.43-5.37,19.8-11.21c3.06-3.32,5.83-6.93,8.63-10.48c2.02-2.56,4.63-3.49,7.62-2.46
		c1.82,0.62,2.8,1.76,1.89,3.68c-4.72,9.91-9.43,19.82-14.33,29.64c-0.51,1.03-2.33,2.01-3.53,2.01
		c-28.92-0.06-57.84-0.27-86.75-0.44c-0.96-0.01-1.93,0-3.27,0c2.35-7.57,4.61-14.86,6.89-22.15
		c11.87-37.96,23.77-75.92,35.55-113.9c0.83-2.68,1.94-3.67,4.89-3.64c18.67,0.23,37.34,0.29,56.01,0.27
		c7.66-0.01,15.31-0.33,22.97-0.5C194.85,49.76,196.01,49.78,197.54,49.78z"/>
	<path class="st1" d="M164.74,243.22c14-40.98,27.87-81.59,41.74-122.2c-0.21-0.25-0.42-0.5-0.63-0.75
		c-4.13,1.63-8.28,3.22-12.39,4.91c-2.19,0.9-4.35,1.89-6.43,3.02c-1.73,0.94-3.66,1.38-4.39-0.61c-0.56-1.53-0.43-4.06,0.52-5.22
		c1.58-1.92,3.92-3.4,6.2-4.54c6.16-3.07,12.49-5.78,18.67-8.81c1.28-0.63,2.6-1.83,3.19-3.1c1.67-3.61,2.78-7.48,4.5-11.06
		c0.75-1.57,2.21-3.34,3.76-3.9c6.33-2.32,12.71-1.6,18.94,0.72c2.13,0.79,2.64,2.2,1.76,4.36c-1.16,2.88-2.09,5.85-3.34,9.43
		c4.77,0,9.16-0.4,13.46,0.08c11.81,1.31,21.41,6.23,25.59,18.18c3.27,9.32,2.15,18.64-1.04,27.87
		c-8.14,23.53-31.83,41.04-55.6,40.79c-2.43-0.03-5.01-0.38-7.25-1.25c-3.27-1.27-4.23,0.43-5.08,2.93
		c-3.81,11.22-7.63,22.43-11.46,33.65c-1.5,4.38-2.93,8.79-4.56,13.12c-0.35,0.94-1.42,2.27-2.18,2.29
		C180.9,243.29,173.06,243.22,164.74,243.22z M250.9,132.88c-0.48-2.16-0.86-5.51-1.97-8.6c-2.04-5.68-7.87-8.89-13.67-7.81
		c-0.83,0.15-1.94,0.97-2.21,1.73c-6.25,18.02-12.4,36.07-18.55,54.13c-1.13,3.32-0.34,6.14,2.41,8.39
		c2.73,2.23,5.69,3.16,8.92,1.24c1.93-1.15,3.94-2.33,5.49-3.9C243.36,165.87,249.48,151.05,250.9,132.88z"/>
	<path class="st0" d="M479.49,152.89c-4.73,5.57-8.69,10.53-12.98,15.19c-7.33,7.95-15.08,15.57-24.87,20.42
		c-4.13,2.04-8.9,3.42-13.48,3.77c-7.4,0.57-12.77-5.56-11.08-12.78c1.63-6.98,4.33-13.74,6.89-20.48
		c4.25-11.19,8.77-22.27,13.17-33.4c0.28-0.7,0.7-1.42,0.71-2.13c0.02-1.13,0.13-2.69-0.52-3.27c-0.57-0.51-2.4-0.33-3.2,0.23
		c-4.76,3.32-9.45,6.74-14,10.33c-1.56,1.22-2.77,2.07-4.41,0.41c-1.54-1.56-2.16-3.3-0.56-5.13
		c10.34-11.82,22.57-20.67,38.33-23.58c2.62-0.49,5.77-0.31,8.19,0.71c5.61,2.38,7.04,7.84,4.34,14.6
		c-3.08,7.71-6.24,15.39-9.38,23.08c-3.58,8.78-7.17,17.56-10.75,26.34c-0.16,0.4-0.44,0.81-0.44,1.21c0,1.61,0.09,3.23,0.15,4.84
		c1.62-0.21,3.6,0.09,4.81-0.73c3.1-2.1,6.09-4.48,8.72-7.15c11.09-11.27,19.05-24.75,26.44-38.58c3.55-6.65,7.01-13.37,10.14-20.22
		c1.28-2.8,3.26-3.88,5.91-4.2c5.01-0.61,9.92-0.16,14.55,2.04c3.96,1.88,3.96,1.94,2.36,6.03c-6.85,17.58-13.71,35.17-20.52,52.77
		c-1.05,2.71-1.98,5.48-2.72,8.28c-0.24,0.9-0.01,2.45,0.6,2.91c0.6,0.45,2.21,0.26,2.95-0.26c5.01-3.52,9.95-7.13,14.8-10.86
		c1.55-1.2,2.76-3.08,4.84-1.05c1.83,1.79,1.8,3.79,0.26,5.8c-7.55,9.82-17.12,17.04-28.66,21.36c-4.46,1.67-9.36,2.62-14.12,2.93
		c-6.67,0.44-9.95-4.36-7.63-10.63c3.11-8.39,6.49-16.68,9.75-25.01C478.45,155.69,478.81,154.7,479.49,152.89z"/>
	<path class="st0" d="M366.41,192.67c-2.27-0.31-4.87-0.46-7.36-1.06c-5.08-1.22-7.87-5.01-6.76-10.05
		c1.31-5.97,3.12-11.86,5.1-17.66c9.83-28.77,19.79-57.5,29.71-86.24c0.21-0.61,0.46-1.21,0.64-1.83c1.8-6.19,1.25-7.54-4.36-10.69
		c-0.56-0.32-1.29-0.51-1.66-0.98c-0.92-1.15-2.49-2.59-2.29-3.61c0.26-1.33,1.8-3.09,3.11-3.43c7.09-1.81,14.26-3.38,21.45-4.74
		c4.55-0.86,9.19-1.24,13.79-1.74c3.59-0.39,4.46,0.71,3.31,4.02c-13.19,37.87-26.39,75.73-39.58,113.6
		c-0.64,1.83-1.34,3.68-1.61,5.58c-0.18,1.26,0.34,2.61,0.54,3.93c1.32-0.21,2.88-0.04,3.91-0.7c2.53-1.62,4.99-3.44,7.17-5.49
		c3.52-3.32,6.83-6.87,10.17-10.37c1.16-1.22,2.45-2.81,3.94-1.11c1,1.14,1.94,3.57,1.39,4.66c-6.81,13.62-16.64,23.81-32.27,26.9
		C372.12,192.18,369.42,192.32,366.41,192.67z"/>
	<path class="st0" d="M541.5,192.44c-6.39,0.15-12.15-1.56-17.01-5.83c-5.8-5.08-6.42-13.79-1.4-19.39
		c3.78-4.22,7.87-4.28,11.95-0.45c3.92,3.68,7.83,7.41,12.13,10.6c1.81,1.35,4.64,1.95,6.96,1.86c5.01-0.2,7.83-4.89,5.36-9.2
		c-2.11-3.68-5.14-6.85-7.91-10.12c-2.43-2.88-5.22-5.46-7.58-8.39c-9.54-11.83-9.41-25.04,0.71-36.37
		c8.88-9.96,19.82-15.21,33.45-12.17c9.01,2.01,14.68,9.45,13.99,17.62c-0.32,3.72-2.15,6.5-5.41,8.29
		c-3.59,1.97-6.06,1.51-8.96-1.46c-2.93-3-5.74-6.16-8.94-8.85c-1.82-1.52-4.22-2.71-6.54-3.21c-4.4-0.95-7.79,2.8-6.25,7.03
		c0.95,2.62,2.85,5.01,4.74,7.15c3.41,3.87,7.26,7.36,10.69,11.22c11.32,12.71,11.15,26.72-0.54,38.96
		C562.95,188.08,553.13,192.44,541.5,192.44z"/>
	<path class="st0" d="M675.46,192.41c-7.14,0.23-13.02-1.59-17.82-6.08c-6.11-5.72-5.95-15.2,0.15-20.32c3.53-2.96,7-2.78,10.32,0.4
		c3.5,3.35,6.84,6.96,10.74,9.78c2.37,1.72,5.63,2.88,8.56,3.02c4.81,0.24,7.67-4.29,5.72-8.69c-1.16-2.6-3.02-4.95-4.89-7.14
		c-2.71-3.2-5.69-6.18-8.58-9.22c-15.74-16.57-9.37-33.87,4.21-44.43c9.09-7.07,19.33-10.02,30.63-5.77
		c7.51,2.83,11.86,9.14,10.92,16.44c-0.35,2.71-2.07,5.73-4.08,7.64c-3.51,3.33-7.06,2.58-10.46-0.92
		c-3.37-3.46-6.91-6.76-10.51-9.98c-0.99-0.88-2.44-1.39-3.76-1.73c-2.45-0.64-4.66-0.22-6.38,1.95c-1.64,2.08-1.58,4.35-0.34,6.34
		c1.58,2.53,3.52,4.86,5.52,7.09c3.16,3.52,6.63,6.77,9.75,10.33c11.44,13.06,10.68,27.81-1.96,39.87
		C695.2,188.62,685.9,192.37,675.46,192.41z"/>
	<path class="st0" d="M314.89,119.17c-2.94,1.63-5.99,3.1-8.8,4.92c-2.8,1.81-5.43,3.9-8,6.03c-1.44,1.2-2.68,1.82-4.14,0.22
		c-1.38-1.51-1.99-3.19-0.4-4.88c2.29-2.42,4.55-4.9,7.08-7.06c8.8-7.49,18.48-13.51,29.99-15.76c2.72-0.53,5.94-0.44,8.48,0.53
		c5.16,1.96,7.23,6.71,5.23,11.92c-3.82,9.96-8.02,19.78-12.13,29.62c-3.74,8.95-7.63,17.84-11.35,26.8
		c-0.44,1.06-0.25,2.39-0.36,3.59c1.2-0.24,2.63-0.15,3.57-0.78c5.09-3.42,10.12-6.94,15.05-10.59c1.64-1.21,3.02-2.21,4.75-0.41
		c1.67,1.74,1.82,3.54,0.16,5.44c-10.19,11.66-22.24,20.32-37.77,23.27c-5.18,0.98-10.07,0.8-13.65-4.11
		c-1.8-2.47-2.12-4.97-1.09-7.62c2.89-7.43,5.89-14.82,8.93-22.18c4.73-11.45,9.55-22.87,14.3-34.32c0.48-1.15,0.72-2.39,1.07-3.59
		C315.52,119.88,315.2,119.53,314.89,119.17z"/>
	<path class="st0" d="M621.2,119.42c-1.53,0.61-3.21,0.97-4.56,1.86c-4.31,2.85-8.54,5.83-12.7,8.9c-1.35,1-2.45,1.81-3.89,0.34
		c-1.41-1.44-2.21-3.07-0.71-4.86c1.45-1.73,3-3.4,4.66-4.92c9.35-8.58,19.75-15.37,32.36-18.06c2.46-0.52,5.26-0.68,7.65-0.04
		c5.54,1.49,8.33,7.01,6.23,12.53c-3.48,9.16-7.37,18.17-11.15,27.22c-4.03,9.64-8.17,19.24-12.17,28.9
		c-0.48,1.16-0.35,2.57-0.51,3.87c1.29-0.32,2.8-0.32,3.85-1.02c5-3.35,9.95-6.79,14.76-10.42c1.69-1.27,3.09-2.07,4.77-0.43
		c1.71,1.67,1.88,3.51,0.21,5.43c-10.25,11.77-22.41,20.46-38.06,23.35c-2.49,0.46-5.25,0.56-7.69-0.02
		c-5.65-1.35-8.62-7-6.48-12.57c3.99-10.36,8.33-20.58,12.55-30.84c3.49-8.47,7.03-16.92,10.54-25.39c0.4-0.97,0.69-1.98,1.03-2.98
		C621.68,120,621.44,119.71,621.2,119.42z"/>
	<path class="st0" d="M638.65,49.88c6.89,7.26,7.96,17.67,1.91,23.44c-5.01,4.78-10.12,9.37-12.16,16.37
		c-6.41-4.37-7.72-13.57-2.99-19.61c1.06-1.35,2.3-2.58,3.6-3.71C635.62,60.64,636.85,58.62,638.65,49.88z"/>
	<path class="st0" d="M322.47,89.76c-6.43-4.48-7.67-13.56-2.95-19.71c0.91-1.19,1.93-2.38,3.13-3.24
		c5.77-4.18,9.27-9.68,9.96-17.03c7.32,7.65,8.48,19.06-0.11,25.72C327.81,79.12,324.37,83.76,322.47,89.76z"/>
	<path class="st1" d="M623.49,219.53c0.93-3.4,1.76-6.83,2.85-10.18c0.28-0.87,1.48-2.12,2.11-2.04c0.93,0.13,2.2,1.12,2.5,2.02
		c1.11,3.35,1.89,6.82,3.41,10.32c0.86-4.08,1.71-8.16,2.59-12.34c1.45,0,2.7,0,4.44,0c-1.58,6.75-3.06,13.31-4.76,19.81
		c-0.14,0.55-1.77,1.11-2.6,0.97c-0.8-0.13-1.84-1.02-2.1-1.8c-1.13-3.44-2.01-6.96-3.57-10.49c-0.96,3.37-1.78,6.8-2.98,10.08
		c-0.36,0.98-1.66,1.92-2.73,2.26c-1.92,0.61-2.21-1.02-2.54-2.43c-1.36-5.97-2.74-11.94-4.11-17.89c3.89-1.32,4.22-1.14,4.99,2.61
		c0.62,3.03,1.22,6.07,1.83,9.11C623.05,219.54,623.27,219.54,623.49,219.53z"/>
	<path class="st1" d="M257.09,207.28c1.73,0,2.89,0,4.33,0c0,6.92,0,13.74,0,20.66c-2.51,0.74-4.4,0.46-5.79-2.26
		c-1.8-3.53-4.04-6.83-6.59-11.05c0,4.99,0,9.09,0,13.41c-1.57,0-2.79,0-4.32,0c0-6.81,0-13.63,0-20.5
		c2.76-1.05,4.57-0.23,5.96,2.45c1.78,3.42,3.92,6.65,6.4,10.79C257.09,215.82,257.09,211.73,257.09,207.28z"/>
	<path class="st1" d="M325.8,91.51c0.97-5.07,4.07-8.84,7.57-12.42c2.89-2.95,5.59-6.08,8.44-9.21c3.9,2.79,4.79,10.92,1.27,16.45
		C339.38,92.14,331.38,94.58,325.8,91.51z"/>
	<path class="st1" d="M647.86,69.9c4.04,3.68,4.61,11.39,0.8,16.9c-3.77,5.46-11.18,7.6-16.95,4.81c0.76-4.5,3.21-8.04,6.33-11.26
		C641.35,76.91,644.58,73.4,647.86,69.9z"/>
	<path class="st1" d="M426.5,219.38c0-3.94,0-7.88,0-12.02c1.54,0,2.77,0,4.2,0c0,6.92,0,13.75,0,20.6
		c-2.72,0.78-4.52,0.2-5.85-2.45c-1.72-3.42-3.89-6.6-6.57-9.76c0,4.07,0,8.14,0,12.34c-1.62,0-2.77,0-4.15,0
		c0-6.95,0-13.77,0-20.57c2.79-0.97,4.5-0.15,5.82,2.39c1.72,3.32,3.8,6.46,5.73,9.67C425.94,219.51,426.22,219.45,426.5,219.38z"/>
	<path class="st1" d="M335.79,207.2c3,0,5.69-0.11,8.37,0.03c2.58,0.13,5.02,0.95,6.04,3.59c0.99,2.57,0.83,5.11-1.01,6.41
		c0.91,3.77,1.7,7.08,2.49,10.37c-4.33,1.36-5,0.92-5.14-3.14c-0.15-4.21-1.52-5.15-6.46-4.1c0,1.4,0.01,2.88,0,4.36
		c-0.03,3.86-0.07,3.89-4.28,3.13C335.79,221.13,335.79,214.37,335.79,207.2z M339.83,216.56c2.92-0.61,6.1,1.02,6.38-2.94
		c0.18-2.48-1.83-3.3-3.93-3.08C338.16,210.97,340.85,214.06,339.83,216.56z"/>
	<path class="st1" d="M298.39,207.18c2.53,0,4.87,0,7.21,0c2.95,0,5.72,0.57,7.01,3.56c1.17,2.7,0.7,5.26-0.93,6.42
		c0.91,3.96,1.67,7.25,2.43,10.56c-4.44,1-4.96,0.65-5.15-3.19c-0.21-4.31-1.31-5.1-6.38-4.31c0,2.46,0,4.99,0,7.77
		c-1.57,0-2.78,0-4.2,0C298.39,221.2,298.39,214.48,298.39,207.18z M302.11,216.53c3-0.59,6.11,1.13,6.57-2.79
		c0.29-2.49-1.58-3.31-3.8-3.2C300.5,210.76,303.32,214.02,302.11,216.53z"/>
	<path class="st1" d="M682.61,227.86c0-6.85,0-13.52,0-20.64c5.09,0.34,10.46-1.69,14.42,3.25c2.2,2.74,2.5,10.51,0.59,13.66
		C695.31,227.96,690.46,229.21,682.61,227.86z M686.89,224.41c4.46,0.72,5.88,0.13,7.03-2.69c1.32-3.25,0.58-8.96-1.57-10.27
		c-1.02-0.63-2.44-0.86-3.67-0.81c-0.61,0.02-1.68,1.04-1.71,1.65C686.82,216.35,686.89,220.42,686.89,224.41z"/>
	<path class="st1" d="M434.8,207.17c5.59,0.35,11.72-1.8,14.89,4.29c2.2,4.22,2.34,9.12-0.51,13.28c-3.64,5.29-9.28,2.99-14.38,3.57
		C434.8,221.1,434.8,214.34,434.8,207.17z M439,224.54c3.11,0.49,5.6,0.5,6.93-2.49c1.29-2.89,0.8-9.07-1.18-10.3
		c-1.33-0.82-3.17-0.86-4.81-1.03c-0.25-0.03-0.88,1.12-0.9,1.74C438.96,216.4,439,220.35,439,224.54z"/>
	<path class="st1" d="M589.85,228.06c-1.37,0-2.62,0-4.08,0c0-2.69,0-5.37,0-8.3c-2.72,0-5.24,0-8.21,0c0,2.62,0,5.35,0,8.27
		c-1.67,0-2.9,0-4.34,0c0-6.85,0-13.6,0-20.61c1.18,0,2.41,0,4.08,0c0,2.69,0,5.52,0,8.55c2.94,0,5.46,0,8.29,0c0-2.86,0-5.62,0-8.6
		c1.53,0,2.77,0,4.25,0C589.85,214.21,589.85,221.04,589.85,228.06z"/>
	<path class="st1" d="M663.95,207.3c3.13,0,6.38-0.33,9.53,0.08c4.63,0.6,7.59,6.11,3.3,10.22c0.72,1.73,1.6,3.3,2,4.98
		c0.41,1.72,0.35,3.56,0.5,5.35c-4.41,0.63-4.56,0.51-4.76-3.84c-0.08-1.76-0.09-3.45-2.35-4.02c-3.17-0.81-4.09-0.19-4.11,3.09
		c-0.01,1.5,0,3.01,0,4.89c-1.35,0.07-2.57,0.13-4.1,0.21C663.95,221.21,663.95,214.38,663.95,207.3z M667.66,216.64
		c3.02-0.76,6.2,0.98,6.63-2.93c0.27-2.49-1.75-3.26-3.89-3.15C666.07,210.79,668.87,214.03,667.66,216.64z"/>
	<path class="st1" d="M660.53,217.75c-0.02,8.19-4.95,12.51-11.79,10.33c-5.07-1.62-7.19-7.09-5.59-14.43
		c1.03-4.71,4.79-7.28,9.81-6.71C658.1,207.53,660.55,211.03,660.53,217.75z M656.27,218.46c-0.15-1.91-0.08-3.23-0.38-4.45
		c-0.53-2.13-1.73-3.69-4.22-3.64c-2.27,0.05-3.82,1.33-4,3.42c-0.24,2.82-0.3,5.77,0.33,8.49c0.27,1.17,2.41,2.54,3.78,2.64
		c1.19,0.08,2.91-1.25,3.64-2.43C656.2,221.23,656.1,219.43,656.27,218.46z"/>
	<path class="st1" d="M478.26,227.92c-2.93,0.63-4.85,0.62-5.47-2.57c-0.47-2.46-2.77-1.68-4.31-1.54c-1.13,0.1-2.93,0.87-3.14,1.67
		c-0.81,3.14-2.72,3.07-5.49,2.39c2.32-6.92,4.59-13.71,6.87-20.54c1.65,0,3.12,0,4.62,0C473.65,214.18,475.9,220.89,478.26,227.92z
		 M471.12,220.1c-0.65-2.07-1.21-3.87-1.77-5.67c-0.22,0.03-0.44,0.06-0.66,0.1c-0.56,1.77-1.12,3.54-1.77,5.57
		C468.45,220.1,469.58,220.1,471.12,220.1z"/>
	<path class="st1" d="M411.73,227.98c-2.56,0.45-4.66,0.79-5.17-2.34c-0.42-2.58-2.49-1.84-4.11-1.88c-1.54-0.04-3.36-0.48-3.7,1.92
		c-0.42,2.89-2.34,2.86-4.89,2.22c0.17-0.89,0.23-1.81,0.51-2.65c1.76-5.32,3.61-10.61,5.31-15.94c0.5-1.58,1.31-2.6,2.94-2.06
		c1.11,0.37,2.56,1.14,2.91,2.08c2.1,5.65,3.93,11.4,5.84,17.13C411.51,226.83,411.57,227.25,411.73,227.98z M400.57,220.04
		c1.52,0,2.71,0,4.23,0c-0.66-2.08-1.22-3.85-1.77-5.61c-0.22,0-0.44,0-0.66,0C401.81,216.2,401.24,217.97,400.57,220.04z"/>
	<path class="st1" d="M316.97,227.89c0-6.77,0-13.51,0-20.54c3.48,0,6.9-0.25,10.26,0.07c3.49,0.33,5.58,2.98,5.62,6.36
		c0.05,3.43-1.9,5.97-5.37,6.63c-1.87,0.35-3.83,0.29-6.19,0.44c0,1.19,0,2.33,0,3.47c0,1.07,0,2.15,0,3.57
		C319.86,227.89,318.48,227.89,316.97,227.89z M321.5,217.78c2.43-0.74,4.58-1.1,6.34-2.12c0.54-0.31,0.47-3.27-0.14-3.64
		c-1.72-1.02-3.88-1.33-6.19-2.01C321.5,212.92,321.5,214.9,321.5,217.78z"/>
	<path class="st1" d="M484.56,220.56c0,2.77,0,5,0,7.52c-1.5,0.08-2.73,0.15-4.24,0.24c0-7.08,0-13.91,0-21.08
		c3.22,0,6.43-0.21,9.61,0.06c3.83,0.32,6.14,3.04,6.14,6.64c0,3.61-2.3,6.14-6.2,6.6C488.29,220.72,486.66,220.56,484.56,220.56z
		 M484.19,216.73c0.31,0.33,0.62,0.66,0.94,1c2.04-0.71,4.24-1.16,6.02-2.28c0.49-0.31,0.19-3.35-0.57-3.82
		c-1.38-0.85-4.47-1.45-4.89-0.83C484.62,212.39,484.62,214.7,484.19,216.73z"/>
	<path class="st1" d="M503.67,220.82c-0.34,2.6-0.48,4.93-1.08,7.13c-0.1,0.37-2.16,0.21-3.53,0.3c0-7.08,0-13.9,0-20.98
		c3.39,0,6.71-0.24,9.99,0.07c3.61,0.34,5.76,3.09,5.75,6.63c-0.01,3.44-2.01,5.86-5.56,6.46
		C507.46,220.72,505.62,220.69,503.67,220.82z M503.48,217.78c2.43-0.74,4.57-1.09,6.32-2.11c0.55-0.32,0.51-3.26-0.09-3.61
		c-1.73-1.01-3.86-1.32-6.23-2.03C503.48,212.85,503.48,214.73,503.48,217.78z"/>
	<path class="st1" d="M367.88,207.39c0,0.97,0,1.87,0,3.15c-1.76,0-3.46-0.01-5.15,0c-4.28,0.02-4.37,0.14-3.41,5.04
		c2.25,0,4.58,0,6.89,0c0.79,2.39,0.43,3.64-2.13,3.44c-0.86-0.07-1.73,0.08-2.58-0.03c-2.24-0.29-2.71,0.83-2.72,2.82
		c0,2.07,0.37,3.28,2.84,3.03c2.01-0.2,4.06-0.04,6.25-0.04c0,1.25,0,2.17,0,3.28c-4.42,0-8.79,0-13.3,0c0-6.95,0-13.71,0-20.68
		C359.01,207.39,363.36,207.39,367.88,207.39z"/>
	<path class="st1" d="M593.98,207.33c4.38,0,8.66,0,13.18,0c0.06,0.94,0.12,1.85,0.18,2.77c-0.45,0.18-0.73,0.38-1.01,0.39
		c-1.4,0.04-2.81,0.03-4.21,0.03c-4.31,0-4.39,0.1-3.61,5c2.27,0,4.6,0,7.15,0c0.08,1.2,0.14,2.1,0.22,3.26
		c-1.14,0.07-2.07,0.17-3.01,0.18c-5.17,0.03-5.17,0.03-4.32,5.84c2,0,4.11,0.12,6.21-0.03c2.57-0.19,2.98,0.97,2.3,3.29
		c-4.3,0-8.56,0-13.07,0C593.98,221.15,593.98,214.32,593.98,207.33z"/>
	<path class="st1" d="M281.88,228.11c0-7.05,0-13.8,0-20.74c4.52,0,8.88,0,13.37,0c0,1.03,0,1.93,0,3.17c-1.75,0-3.34,0-4.93,0
		c-4.66-0.01-4.66-0.01-3.81,4.99c2.27,0,4.61,0,7.14,0c0,1.18,0,2.08,0,3.35c-2.38,0-4.7,0-7.29,0c0,2.12,0,3.87,0,5.97
		c3.05,0,5.92,0,8.91,0c0,1.26,0,2.17,0,3.25C290.8,228.11,286.51,228.11,281.88,228.11z"/>
	<path class="st1" d="M528.55,207.54c2.91-0.89,4.89-0.53,5.94,2.52c0.71,2.08,1.88,4.01,3.08,6.5c1.2-2.49,2.39-4.41,3.07-6.49
		c1.03-3.14,3.09-3.3,5.92-2.6c-2.45,6.85-8.68,12.27-6.61,20.57c-1.74,0-3.04,0-4.88,0C537.03,219.81,531.21,214.25,528.55,207.54z
		"/>
	<path class="st1" d="M369.28,207.3c5.59,0,10.73,0,16.06,0c0,1.03,0,1.93,0,3.04c-0.52,0.07-1.05,0.26-1.52,0.17
		c-3.54-0.64-4.39,0.99-4.18,4.27c0.27,4.29,0.07,8.61,0.07,12.88c-4.03,1.18-4.41,0.92-4.42-3.02c-0.01-4.52,0-9.04,0-13.91
		c-1.99-0.12-3.77-0.22-5.76-0.34C369.45,209.45,369.38,208.54,369.28,207.3z"/>
	<path class="st1" d="M279.53,210.06c-0.2,0.17-0.28,0.28-0.36,0.29c-5.57,0.77-5.57,0.77-5.57,6.51c0,3.55-0.01,7.1-0.03,10.65
		c0,0.09-0.12,0.17-0.35,0.49c-1.05,0-2.26,0-3.81,0c0-5.72,0-11.38,0-17.27c-2.07-0.12-3.86-0.23-5.82-0.34c0-1.07,0-1.97,0-3.04
		c5.32,0,10.54,0,15.94,0C279.53,208.36,279.53,209.26,279.53,210.06z"/>
	<path class="st1" d="M554.77,210.41c0-1.15,0-2.05,0-3.09c5.31,0,10.45,0,15.87,0c0.11,0.91,0.22,1.8,0.38,3.07
		c-2.03,0-3.8,0-5.95,0c0,6.09,0,11.85,0,17.69c-1.62,0-2.87,0-4.53,0c0-4.55-0.22-8.96,0.07-13.33c0.22-3.38-0.81-4.83-4.24-4.24
		C555.96,210.58,555.52,210.46,554.77,210.41z"/>
	<path class="st1" d="M522.09,224.77c3.24,0,6.1,0,9.14,0c0,1.26,0,2.18,0,3.3c-4.47,0-8.82,0-13.39,0c0-6.94,0-13.76,0-20.74
		c1.4,0,2.63,0,4.25,0C522.09,213.14,522.09,218.79,522.09,224.77z"/>
	<path class="st1" d="M236.32,228c0-6.96,0-13.69,0-20.62c1.36,0,2.61,0,4.07,0c0,6.76,0,13.58,0,20.62
		C239.13,228,237.91,228,236.32,228z"/>
</g>
</svg>
